HIERARCHY
ROOT Hips
{
	OFFSET 0.000000 0.000000 0.000000
	CHANNELS 6 Xposition Yposition Zposition Zrotation Yrotation Xrotation 
	JOINT LHipJoint
	{
		OFFSET 0.000000 0.000000 0.000000
		CHANNELS 3 Zrotation Yrotation Xrotation
		JOINT LeftUpLeg
		{
			OFFSET 1.363060 -1.794630 0.839290
			CHANNELS 3 Zrotation Yrotation Xrotation
			JOINT LeftLeg
			{
				OFFSET 2.448110 -6.726130 0.000000
				CHANNELS 3 Zrotation Yrotation Xrotation
				JOINT LeftFoot
				{
					OFFSET 2.562200 -7.039590 0.000000
					CHANNELS 3 Zrotation Yrotation Xrotation
					JOINT LeftToeBase
					{
						OFFSET 0.157640 -0.433110 2.322550
						CHANNELS 3 Zrotation Yrotation Xrotation
						End Site
						{
							OFFSET 0.000000 0.000000 0.000000
						}
					}
				}
			}
		}
	}
	JOINT RHipJoint
	{
		OFFSET 0.000000 0.000000 0.000000
		CHANNELS 3 Zrotation Yrotation Xrotation
		JOINT RightUpLeg
		{
			OFFSET -1.305520 -1.794630 0.839290
			CHANNELS 3 Zrotation Yrotation Xrotation
			JOINT RightLeg
			{
				OFFSET -2.542530 -6.985550 0.000000
				CHANNELS 3 Zrotation Yrotation Xrotation
				JOINT RightFoot
				{
					OFFSET -2.568260 -7.056230 0.000000
					CHANNELS 3 Zrotation Yrotation Xrotation
					JOINT RightToeBase
					{
						OFFSET -0.164730 -0.452590 2.363150
						CHANNELS 3 Zrotation Yrotation Xrotation
						End Site
						{
							OFFSET 0.000000 0.000000 0.000000
						}
					}
				}
			}
		}
	}
}
MOTION
Frames: 16
Frame Time: 0.008333
17.442566 16.636496 1.797661 -156.542571 -84.302571 -151.796139 -8.446280 -1.381229 1.159009 -6.903838 -7.004443 -64.821602 -2.247923 -0.127276 23.472374 3.838659 13.356984 -14.884475 -0.733900 0.000000 -34.246100 7.372538 0.971138 2.695632 6.933192 11.472303 -62.851112 3.263203 0.388808 18.374651 -2.120206 -5.823921 -9.461978 -0.706400 0.000000 -60.334900
17.428226 16.563707 1.806912 -157.080712 -84.297302 -150.488609 -8.401124 -1.392624 1.215408 -6.812697 -7.428433 -66.719216 -2.216706 0.097062 25.630679 3.963659 13.439652 -15.887251 -0.984600 -0.000000 -33.920300 7.343216 0.987660 2.781203 6.527966 11.837289 -65.148214 3.140388 0.031007 21.220183 -2.247921 -5.836312 -10.672590 -0.532800 -0.000000 -59.990900
17.414224 16.484199 1.815272 -157.996943 -84.333216 -148.827111 -8.358629 -1.409023 1.264503 -6.750146 -7.881521 -68.636485 -2.178067 0.337578 27.896939 4.086791 13.518359 -16.908632 -1.246700 0.000000 -33.612000 7.321419 1.019499 2.852217 6.064320 12.146172 -67.472424 2.991569 -0.343566 24.182834 -2.382119 -5.879987 -11.904997 -0.352400 -0.000000 -59.646201
17.400763 16.397687 1.822647 -159.370447 -84.417446 -146.734250 -8.317209 -1.431662 1.308578 -6.713547 -8.378964 -70.565963 -2.128456 0.590467 30.259400 4.209111 13.603166 -17.940355 -1.518800 0.000001 -33.313999 7.308672 1.068964 2.906840 5.544009 12.381852 -69.815391 2.818865 -0.731795 27.250602 -2.520916 -5.952359 -13.158742 -0.163600 0.000001 -59.283700
17.387465 16.304023 1.829066 -161.260140 -84.552923 -144.151858 -8.274768 -1.461801 1.349276 -6.698130 -8.928695 -72.498465 -2.065040 0.851502 32.705401 4.331055 13.700279 -18.976968 -1.800600 -0.000000 -33.019800 7.306631 1.137041 2.945812 4.971611 12.534884 -72.163255 2.625199 -1.128906 30.400232 -2.663136 -6.054613 -14.430831 0.034100 0.000000 -58.897099
17.374444 16.203225 1.834732 -163.644268 -84.735951 -141.103422 -8.228728 -1.500812 1.385853 -6.693564 -9.526535 -74.428282 -1.985760 1.117667 35.225955 4.451944 13.809812 -20.017316 -2.092300 0.000000 -32.717100 7.315944 1.224562 2.969711 4.359905 12.607248 -74.495144 2.414877 -1.528789 33.599695 -2.808341 -6.190223 -15.718717 0.241700 0.000000 -58.463000
17.361346 16.094986 1.839261 -166.890157 -84.972958 -137.218650 -8.174341 -1.548068 1.424997 -6.707948 -10.204435 -76.344165 -1.888949 1.380506 37.797356 4.574502 13.945543 -21.053645 -2.394200 -0.000000 -32.412900 7.342359 1.331757 2.980893 3.698075 12.570793 -76.823997 2.189439 -1.934928 36.864333 -2.953552 -6.349177 -17.030047 0.461500 -0.000001 -57.993300
17.347910 15.979603 1.843285 -170.796855 -85.243393 -132.699794 -8.109127 -1.604121 1.460854 -6.720286 -10.928390 -78.245337 -1.774704 1.640848 40.420506 4.695840 14.095630 -22.094361 -2.707800 0.000000 -32.091400 7.384523 1.458943 2.980615 3.015171 12.455254 -79.111009 1.954430 -2.337328 40.138717 -3.100105 -6.542255 -18.356755 0.693800 -0.000000 -57.451300
17.334150 15.857283 1.846912 -175.474930 -85.534426 -127.438053 -8.030462 -1.666911 1.494603 -6.726272 -11.693979 -80.126165 -1.643541 1.895916 43.083722 4.815994 14.260630 -23.140481 -3.034000 -0.000000 -31.760800 7.443978 1.606179 2.971630 2.319905 12.266371 -81.347481 1.712065 -2.734165 43.411008 -3.247106 -6.768562 -19.697236 0.939800 -0.000000 -56.846700
17.319708 15.728243 1.850355 179.053279 -85.827359 -121.410077 -7.937882 -1.733816 1.525244 -6.719445 -12.487084 -81.984151 -1.496571 2.145158 45.779384 4.934619 14.439354 -24.194324 -3.373200 -0.000000 -31.427301 7.519776 1.774072 2.955463 1.624583 12.018963 -83.520841 1.464196 -3.122290 46.665085 -3.394058 -7.028602 -21.047611 1.200800 0.000000 -56.179300
17.304546 15.592977 1.853912 172.875850 -86.101325 -114.706399 -7.834930 -1.802118 1.551221 -6.693600 -13.286211 -83.816291 -1.335197 2.389836 48.501940 5.050887 14.629317 -25.257692 -3.725400 0.000000 -31.103600 7.607110 1.962340 2.933893 0.943072 11.735414 -85.616730 1.211907 -3.497589 49.883743 -3.540794 -7.324135 -22.400017 1.477500 -0.000000 -55.461600
17.288292 15.452006 1.857854 166.162179 -86.339002 -107.498482 -7.728524 -1.870536 1.570817 -6.644712 -14.069764 -85.620193 -1.160748 2.631746 51.245727 5.164037 14.829210 -26.330486 -4.090000 -0.000000 -30.805200 7.698208 2.169162 2.908239 0.286734 11.438435 -87.623441 0.955620 -3.856292 53.052869 -3.687309 -7.656857 -23.744981 1.770700 0.000000 -54.712401
17.270958 15.306036 1.862551 159.267266 -86.530865 -100.143660 -7.629890 -1.941978 1.580705 -6.567487 -14.808430 -87.392435 -0.974301 2.873811 54.008121 5.272138 15.035407 -27.410683 -4.465000 0.000001 -30.545999 7.781192 2.388583 2.878909 -0.328728 11.157325 -89.527215 0.695957 -4.194087 56.156058 -3.834321 -8.029984 -25.071043 2.081100 0.000000 -53.948101
17.252192 15.155629 1.867791 152.254070 -86.672472 -92.705267 -7.541704 -2.016333 1.582292 -6.472348 -15.505968 -89.123731 -0.776790 3.113977 56.774669 5.376156 15.255221 -28.488557 -4.849200 0.000000 -30.350300 7.854613 2.617579 2.848834 -0.911829 10.891670 -91.334083 0.431154 -4.512417 59.196983 -3.980633 -8.440949 -26.367535 2.408000 0.000000 -53.213699
17.231879 15.001628 1.873615 145.431627 -86.765540 -85.495723 -7.469052 -2.097513 1.573956 -6.361681 -16.149109 -90.806812 -0.569143 3.352769 59.537748 5.475024 15.489027 -29.556136 -5.240000 0.000000 -30.232900 7.913594 2.849717 2.819085 -1.458606 10.655462 -93.040128 0.160655 -4.810261 62.167848 -4.126367 -8.890967 -27.622567 2.751000 -0.000000 -52.537200
17.209884 14.844922 1.880398 139.164100 -86.826433 -78.881253 -7.417807 -2.193834 1.552699 -6.230510 -16.715162 -92.434973 -0.352138 3.591813 62.294020 5.566215 15.731840 -30.607186 -5.634300 -0.000000 -30.193701 7.952278 3.074265 2.788245 -1.952223 10.469720 -94.635410 -0.114406 -5.085841 65.054342 -4.272406 -9.381902 -28.826497 3.110100 0.000000 -51.928100
